<svg width="107" height="96" viewBox="0 0 107 96" fill="none" xmlns="http://www.w3.org/2000/svg">
<path d="M43.3499 41.7828C36.2653 41.7828 30.5015 47.5466 30.5015 54.6312C30.5015 61.1065 35.3046 64.9725 43.3499 64.9725C51.3952 64.9725 56.1982 61.1065 56.1982 54.6312C56.1982 47.5466 50.4345 41.7828 43.3499 41.7828ZM43.3499 61.8386C39.7219 61.8386 33.6353 60.9022 33.6353 54.631C33.6353 49.2741 37.9932 44.9163 43.3499 44.9163C48.7064 44.9163 53.0645 49.2741 53.0645 54.631C53.0645 60.9022 46.9779 61.8386 43.3499 61.8386Z" fill="currentColor"/>
<path d="M37.0824 29.2479C33.8797 29.2479 31.755 33.209 31.755 35.8288C31.755 38.7663 34.1447 41.1563 37.0824 41.1563C40.0201 41.1563 42.4098 38.7665 42.4098 35.8288C42.4098 33.2088 40.2851 29.2479 37.0824 29.2479ZM37.0824 38.0223C35.8728 38.0223 34.8887 37.0384 34.8887 35.8286C34.8887 34.3465 36.1393 32.3814 37.0824 32.3814C38.0255 32.3814 39.2761 34.3465 39.2761 35.8286C39.2761 37.0382 38.292 38.0223 37.0824 38.0223Z" fill="currentColor"/>
<path d="M49.6173 29.2479C46.4146 29.2479 44.2899 33.209 44.2899 35.8288C44.2899 38.7663 46.6796 41.1563 49.6173 41.1563C52.555 41.1563 54.9447 38.7665 54.9447 35.8288C54.9447 33.2088 52.82 29.2479 49.6173 29.2479ZM49.6173 38.0223C48.4077 38.0223 47.4236 37.0384 47.4236 35.8286C47.4236 34.3465 48.6741 32.3814 49.6173 32.3814C50.5604 32.3814 51.811 34.3465 51.811 35.8286C51.811 37.0382 50.8269 38.0223 49.6173 38.0223Z" fill="currentColor"/>
<path d="M59.6451 36.7688C56.4424 36.7688 54.3177 40.7299 54.3177 43.3498C54.3177 46.2872 56.7074 48.6772 59.6451 48.6772C62.5828 48.6772 64.9725 46.2875 64.9725 43.3498C64.9725 40.7297 62.8478 36.7688 59.6451 36.7688ZM59.6451 45.5433C58.4355 45.5433 57.4514 44.5594 57.4514 43.3496C57.4514 41.8674 58.702 39.9024 59.6451 39.9024C60.5883 39.9024 61.8388 41.8674 61.8388 43.3496C61.8388 44.5592 60.8547 45.5433 59.6451 45.5433Z" fill="currentColor"/>
<path d="M27.0544 36.7688C23.8517 36.7688 21.727 40.7299 21.727 43.3498C21.727 46.2872 24.1167 48.6772 27.0544 48.6772C29.9921 48.6772 32.3818 46.2875 32.3818 43.3498C32.3818 40.7297 30.2571 36.7688 27.0544 36.7688ZM27.0544 45.5433C25.8448 45.5433 24.8607 44.5594 24.8607 43.3496C24.8607 41.8674 26.1112 39.9024 27.0544 39.9024C27.9975 39.9024 29.2481 41.8674 29.2481 43.3496C29.2481 44.5592 28.264 45.5433 27.0544 45.5433Z" fill="currentColor"/>
<path d="M46.6925 51.8107H44.9168V50.035C44.9168 49.1694 44.2152 48.4682 43.35 48.4682C42.4848 48.4682 41.7833 49.1696 41.7833 50.035V51.8107H40.0075C39.1421 51.8107 38.4408 52.5121 38.4408 53.3775C38.4408 54.2431 39.1424 54.9442 40.0075 54.9442H41.7833V56.72C41.7833 57.5856 42.4848 58.2867 43.35 58.2867C44.2152 58.2867 44.9168 57.5854 44.9168 56.72V54.9442H46.6925C47.5579 54.9442 48.2593 54.2429 48.2593 53.3775C48.2593 52.5121 47.5577 51.8107 46.6925 51.8107Z" fill="currentColor"/>
<path d="M62.1969 2.2959C57.4824 0.772197 52.547 0 47.5281 0C34.8327 0 22.8974 4.94373 13.9204 13.9207C4.94374 22.8976 0 34.8329 0 47.5281C0 60.2232 4.94373 72.1585 13.9207 81.1357C22.8976 90.1126 34.8329 95.0563 47.5283 95.0563C48.3937 95.0563 49.095 94.355 49.095 93.4896C49.095 92.624 48.3935 91.9228 47.5283 91.9228C35.6701 91.9228 24.5216 87.3049 16.1367 78.92C7.75165 70.5345 3.13372 59.3863 3.13372 47.5281C3.13372 35.6699 7.75165 24.5216 16.1365 16.1365C24.5216 7.75123 35.6699 3.13372 47.5281 3.13372C52.2196 3.13372 56.8304 3.85514 61.2333 5.27811C62.0458 5.54164 62.9434 5.08125 63.2061 4.26913C63.4688 3.45639 63.0094 2.55839 62.1969 2.2959Z" fill="currentColor"/>
<path d="M106.612 42.9554L101.11 36.6662C100.548 36.024 99.5411 35.9565 98.8987 36.5187L94.516 40.3536C93.004 30.3969 88.319 21.1036 81.1356 13.9202C77.712 10.4966 73.8306 7.63308 69.5984 5.40949C68.8425 5.01158 67.8797 5.31168 67.4825 6.06737C67.0854 6.82327 67.3847 7.78606 68.1405 8.18334C72.0929 10.2604 75.7194 12.9361 78.9195 16.1362C86.4058 23.6225 90.8429 33.1277 91.751 43.624C91.8594 44.8762 93.3957 45.4977 94.3438 44.668L99.7827 39.9088L103.222 43.8394L91.0304 54.507C90.0584 55.3576 88.5633 55.3576 87.5911 54.507L75.3996 43.8394L78.8389 39.9088L83.8392 44.2841C84.8963 45.2089 86.5911 44.3149 86.4273 42.9218C84.1082 23.2164 67.3851 8.35637 47.5282 8.35637C25.9288 8.35637 8.35659 25.9286 8.35659 47.528C8.35659 69.1274 25.9288 86.6996 47.5282 86.6996C48.3936 86.6996 49.095 85.9983 49.095 85.1326C49.095 84.267 48.3934 83.5659 47.5282 83.5659C27.6569 83.5659 11.4903 67.3995 11.4903 47.528C11.4903 27.6565 27.6567 11.4901 47.528 11.4901C64.3199 11.4901 78.6765 23.0413 82.544 38.9868L79.7235 36.5189C79.0811 35.9569 78.0742 36.0247 77.5127 36.6664L72.0099 42.9556C71.44 43.6068 71.506 44.5966 72.1574 45.1665L85.528 56.8656C87.6666 58.7369 90.9558 58.7369 93.0945 56.8656L106.465 45.1665C107.116 44.5966 107.182 43.6068 106.612 42.9554Z" fill="currentColor"/>
<path d="M73.4335 89.4153H61.8029C66.9836 85.5604 75.0005 78.3895 75.0005 70.9263C75.0005 65.4547 70.5487 61.0029 65.077 61.0029C59.6054 61.0029 55.1536 65.4547 55.1536 70.9263C55.1536 71.7919 55.8552 72.493 56.7204 72.493C57.5856 72.493 58.2871 71.7917 58.2871 70.9263C58.2871 67.1823 61.3331 64.1366 65.0768 64.1366C68.8206 64.1366 71.8665 67.1823 71.8665 70.9263C71.8665 79.9486 56.0732 89.5428 55.9139 89.6383C55.2987 90.0074 55.0096 90.7725 55.2268 91.4563C55.431 92.0995 56.0456 92.5489 56.7202 92.5489H73.4333C74.2987 92.5489 75 91.8475 75 90.9821C75.0005 90.1167 74.2989 89.4153 73.4335 89.4153Z" fill="currentColor"/>
<path d="M98.5034 82.7302H95.0563V62.5699C95.0563 61.9277 94.6492 61.3359 94.0496 61.1064C93.4101 60.8617 92.665 61.0715 92.2475 61.6142L75.5344 83.3413C74.7566 84.3526 75.503 85.8635 76.7764 85.8635H91.9227V90.982C91.9227 91.8476 92.6243 92.5487 93.4895 92.5487C94.3547 92.5487 95.0563 91.8474 95.0563 90.982V85.8635H98.5034C99.3689 85.8635 100.07 85.1622 100.07 84.2968C100.07 83.4314 99.3686 82.7302 98.5034 82.7302ZM91.9225 82.7302H79.9582L91.9225 67.1768V82.7302Z" fill="currentColor"/>
</svg>
