<svg width="98" height="107" viewBox="0 0 98 107" fill="none" xmlns="http://www.w3.org/2000/svg">
<path d="M13.2964 23.452C5.96462 23.452 0 29.4168 0 36.7484C0 43.5486 5.13224 49.1692 11.7261 49.9489V60.2005C11.7261 61.0677 12.4293 61.771 13.2966 61.771C14.1639 61.771 14.8671 61.0677 14.8671 60.2005V49.9489C21.461 49.1692 26.5933 43.5484 26.5933 36.7484C26.5931 29.4168 20.6282 23.452 13.2964 23.452ZM13.2964 46.904C7.69669 46.904 3.14083 42.3482 3.14083 36.7484C3.14083 31.1487 7.69669 26.5928 13.2964 26.5928C18.8962 26.5928 23.452 31.1487 23.452 36.7484C23.452 42.3482 18.8964 46.904 13.2964 46.904Z" fill="currentColor"/>
<path d="M13.2964 30.1527C9.65948 30.1527 6.70047 33.1117 6.70047 36.7487C6.70047 40.3856 9.65948 43.3446 13.2964 43.3446C16.9334 43.3446 19.8924 40.3856 19.8924 36.7487C19.8924 33.1117 16.9334 30.1527 13.2964 30.1527ZM13.2964 40.2036C11.3913 40.2036 9.84151 38.6536 9.84151 36.7487C9.84151 34.8438 11.3915 33.2938 13.2964 33.2938C15.2015 33.2938 16.7514 34.8438 16.7514 36.7487C16.7514 38.6536 15.2015 40.2036 13.2964 40.2036Z" fill="currentColor"/>
<path d="M96.2162 37.6908H95.2739V10.7838C95.2739 6.22314 91.5634 2.51283 87.0029 2.51283H83.548V1.57052C83.548 0.703232 82.845 0 81.9775 0H77.7896C75.5383 0 73.7065 1.83175 73.7065 4.08314C73.7065 6.33453 75.5383 8.16627 77.7896 8.16627H81.9775C82.845 8.16627 83.548 7.46304 83.548 6.59576V5.65345H87.0029C89.8317 5.65345 92.1331 7.95499 92.1331 10.7836V37.6905H91.1908C90.3233 37.6905 89.6202 38.3938 89.6202 39.2611V41.7737C89.6202 48.759 83.9371 54.4419 76.952 54.4419H56.8502C49.8651 54.4419 44.182 48.759 44.182 41.7737V39.2611C44.182 38.3938 43.4788 37.6905 42.6115 37.6905H41.6692V10.7838C41.6692 7.9552 43.9707 5.65365 46.7993 5.65365H50.2543V6.59596C50.2543 7.46325 50.9573 8.16648 51.8248 8.16648H56.0126C58.264 8.16648 60.0958 6.33473 60.0958 4.08335C60.096 1.83175 58.2642 0 56.0126 0H51.8248C50.9573 0 50.2543 0.703232 50.2543 1.57052V2.51283H46.7993C42.2387 2.51283 38.5284 6.22335 38.5284 10.7838V37.6908H37.5861C36.7188 37.6908 36.0155 38.394 36.0155 39.2613V41.7739C36.0155 53.262 45.3619 62.6086 56.8502 62.6086H62.818V70.2514C62.818 71.1186 63.521 71.8219 64.3885 71.8219H65.3308V80.3022C65.3308 93.2915 54.7631 103.859 41.7741 103.859H38.4239C25.4347 103.859 14.8672 93.2915 14.8672 80.3022V67.8083C14.8672 66.941 14.1639 66.2378 13.2966 66.2378C12.4293 66.2378 11.7261 66.941 11.7261 67.8083V80.3022C11.7261 95.0235 23.7026 107 38.4239 107H41.7741C56.4954 107 68.4719 95.0235 68.4719 80.3022V71.8219H69.4142C70.2817 71.8219 70.9847 71.1186 70.9847 70.2514V62.6086H76.9525C88.4405 62.6086 97.7872 53.2622 97.7872 41.7739V39.2613C97.7867 38.394 97.0837 37.6908 96.2162 37.6908ZM80.407 5.02545H77.7896C77.2701 5.02545 76.8473 4.60267 76.8473 4.08314C76.8473 3.5636 77.2701 3.14083 77.7896 3.14083H80.407V5.02545ZM53.3953 3.14083H56.0126C56.5322 3.14083 56.9549 3.5636 56.9549 4.08314C56.9549 4.60267 56.5322 5.02545 56.0126 5.02545H53.3953V3.14083ZM94.6459 41.7739C94.6459 51.5301 86.7087 59.4675 76.9522 59.4675H69.4142C68.5467 59.4675 67.8437 60.1708 67.8437 61.0381V68.6808H65.959V61.0381C65.959 60.1708 65.256 59.4675 64.3885 59.4675H56.8504C47.094 59.4675 39.1568 51.5301 39.1568 41.7739V40.8316H41.0414V41.7739C41.0414 50.4913 48.1333 57.5831 56.8507 57.5831H76.9525C85.6698 57.5831 92.7617 50.4913 92.7617 41.7739V40.8316H94.6463L94.6459 41.7739Z" fill="currentColor"/>
<path d="M66.9011 25.1272C59.8005 25.1272 54.0235 30.9041 54.0235 38.0048C54.0235 44.495 58.8375 48.3698 66.9011 48.3698C74.9648 48.3698 79.7787 44.495 79.7787 38.0048C79.7789 30.9041 74.002 25.1272 66.9011 25.1272ZM66.9011 45.229C63.2648 45.229 57.1643 44.2904 57.1643 38.0048C57.1643 32.636 61.5321 28.268 66.9011 28.268C72.2701 28.268 76.6379 32.636 76.6379 38.0048C76.6379 44.2904 70.5374 45.229 66.9011 45.229Z" fill="currentColor"/>
<path d="M60.6194 12.5636C57.4097 12.5636 55.2799 16.5334 55.2799 19.1595C55.2799 22.1039 57.6751 24.4991 60.6194 24.4991C63.5638 24.4991 65.959 22.1039 65.959 19.1595C65.9588 16.5336 63.8292 12.5636 60.6194 12.5636ZM60.6194 21.3583C59.4071 21.3583 58.4207 20.3721 58.4207 19.1595C58.4207 17.6743 59.6742 15.7046 60.6194 15.7046C61.5647 15.7046 62.8182 17.6743 62.8182 19.1595C62.818 20.3718 61.8318 21.3583 60.6194 21.3583Z" fill="currentColor"/>
<path d="M73.183 12.5636C69.9732 12.5636 67.8434 16.5334 67.8434 19.1595C67.8434 22.1039 70.2386 24.4991 73.183 24.4991C76.1273 24.4991 78.5225 22.1039 78.5225 19.1595C78.5225 16.5336 76.3927 12.5636 73.183 12.5636ZM73.183 21.3583C71.9706 21.3583 70.9842 20.3721 70.9842 19.1595C70.9842 17.6743 72.2377 15.7046 73.183 15.7046C74.1282 15.7046 75.3817 17.6743 75.3817 19.1595C75.3817 20.3718 74.3953 21.3583 73.183 21.3583Z" fill="currentColor"/>
<path d="M83.2338 20.1018C80.024 20.1018 77.8943 24.0716 77.8943 26.6977C77.8943 29.6421 80.2895 32.0373 83.2338 32.0373C86.1782 32.0373 88.5734 29.6421 88.5734 26.6977C88.5734 24.0716 86.4436 20.1018 83.2338 20.1018ZM83.2338 28.8963C82.0215 28.8963 81.0351 27.9101 81.0351 26.6975C81.0351 25.2123 82.2886 23.2426 83.2338 23.2426C84.1791 23.2426 85.4326 25.2123 85.4326 26.6975C85.4324 27.9101 84.4462 28.8963 83.2338 28.8963Z" fill="currentColor"/>
<path d="M50.5686 20.1018C47.3588 20.1018 45.229 24.0716 45.229 26.6977C45.229 29.6421 47.6242 32.0373 50.5686 32.0373C53.5129 32.0373 55.9081 29.6421 55.9081 26.6977C55.9081 24.0716 53.7784 20.1018 50.5686 20.1018ZM50.5686 28.8963C49.3562 28.8963 48.3698 27.9101 48.3698 26.6975C48.3698 25.2123 49.6233 23.2426 50.5686 23.2426C51.5138 23.2426 52.7673 25.2123 52.7673 26.6975C52.7671 27.9101 51.7809 28.8963 50.5686 28.8963Z" fill="currentColor"/>
</svg>
