<svg xmlns="http://www.w3.org/2000/svg" xmlns:xlink="http://www.w3.org/1999/xlink"><symbol id="arrow-left"><g fill="none"><path d="M14 1 2 16.037 14 30" stroke="currentColor" stroke-opacity=".47" stroke-width="2"/></g></symbol><symbol id="arrow-right"><g fill="none"><path d="m.36 16.26 10.56-7.98L.36.3" stroke="#fff" stroke-width=".5"/></g></symbol><symbol id="benefits-icon-1"><g fill="none"><path d="M13.296 23.452C5.965 23.452 0 29.417 0 36.748c0 6.8 5.132 12.421 11.726 13.2V60.2a1.57 1.57 0 0 0 3.141 0V49.95c6.594-.78 11.726-6.4 11.726-13.2 0-7.332-5.965-13.297-13.297-13.297Zm0 23.452c-5.6 0-10.155-4.556-10.155-10.156 0-5.6 4.556-10.155 10.155-10.155 5.6 0 10.156 4.556 10.156 10.155 0 5.6-4.556 10.156-10.156 10.156Z" fill="currentColor"/><path d="M13.296 30.153A6.604 6.604 0 0 0 6.7 36.749a6.604 6.604 0 0 0 6.596 6.596 6.604 6.604 0 0 0 6.596-6.596 6.604 6.604 0 0 0-6.596-6.596Zm0 10.05a3.459 3.459 0 0 1-3.454-3.454 3.459 3.459 0 0 1 3.454-3.455 3.459 3.459 0 0 1 3.455 3.455 3.459 3.459 0 0 1-3.455 3.455ZM96.216 37.69h-.942V10.785c0-4.56-3.71-8.271-8.271-8.271h-3.455V1.57A1.57 1.57 0 0 0 81.978 0H77.79a4.088 4.088 0 0 0-4.084 4.083 4.088 4.088 0 0 0 4.084 4.083h4.188a1.57 1.57 0 0 0 1.57-1.57v-.943h3.455a5.136 5.136 0 0 1 5.13 5.13V37.69h-.942a1.57 1.57 0 0 0-1.57 1.571v2.513c0 6.985-5.684 12.668-12.669 12.668H56.85c-6.985 0-12.668-5.683-12.668-12.668V39.26a1.57 1.57 0 0 0-1.57-1.57h-.943V10.784a5.136 5.136 0 0 1 5.13-5.13h3.455v.942c0 .867.703 1.57 1.57 1.57h4.189a4.088 4.088 0 0 0 4.083-4.083A4.088 4.088 0 0 0 56.013 0h-4.188a1.57 1.57 0 0 0-1.57 1.57v.943h-3.456c-4.56 0-8.27 3.71-8.27 8.27v26.908h-.943a1.57 1.57 0 0 0-1.57 1.57v2.513c0 11.488 9.346 20.835 20.834 20.835h5.968v7.642c0 .868.703 1.57 1.57 1.57h.943v8.481c0 12.99-10.568 23.557-23.557 23.557h-3.35c-12.99 0-23.557-10.567-23.557-23.557V67.808a1.57 1.57 0 0 0-3.14 0v12.494C11.726 95.023 23.702 107 38.423 107h3.35c14.721 0 26.698-11.977 26.698-26.698v-8.48h.942a1.57 1.57 0 0 0 1.57-1.57v-7.643h5.969c11.487 0 20.834-9.347 20.834-20.835V39.26c0-.867-.703-1.57-1.57-1.57ZM80.407 5.026H77.79a.943.943 0 0 1 0-1.884h2.617v1.884ZM53.395 3.141h2.618a.943.943 0 0 1 0 1.884h-2.618V3.141Zm41.25 38.633c0 9.756-7.936 17.694-17.693 17.694h-7.538a1.57 1.57 0 0 0-1.57 1.57v7.643h-1.885v-7.643a1.57 1.57 0 0 0-1.57-1.57H56.85c-9.756 0-17.693-7.938-17.693-17.694v-.942h1.884v.942c0 8.717 7.092 15.81 15.81 15.81h20.102c8.717 0 15.809-7.093 15.809-15.81v-.942h1.884v.942Z" fill="currentColor"/><path d="M66.901 25.127c-7.1 0-12.877 5.777-12.877 12.878 0 6.49 4.813 10.365 12.877 10.365S79.78 44.495 79.78 38.005c0-7.1-5.777-12.878-12.878-12.878Zm0 20.102c-3.636 0-9.737-.939-9.737-7.224 0-5.369 4.368-9.737 9.737-9.737 5.37 0 9.737 4.368 9.737 9.737 0 6.285-6.1 7.224-9.737 7.224ZM60.62 12.564c-3.21 0-5.34 3.97-5.34 6.596a5.345 5.345 0 0 0 5.34 5.34 5.345 5.345 0 0 0 5.339-5.34c0-2.626-2.13-6.596-5.34-6.596Zm0 8.794a2.201 2.201 0 0 1-2.2-2.198c0-1.486 1.254-3.455 2.2-3.455.945 0 2.198 1.97 2.198 3.455a2.202 2.202 0 0 1-2.199 2.198ZM73.183 12.564c-3.21 0-5.34 3.97-5.34 6.596a5.345 5.345 0 0 0 5.34 5.34 5.345 5.345 0 0 0 5.34-5.34c0-2.626-2.13-6.596-5.34-6.596Zm0 8.794a2.201 2.201 0 0 1-2.199-2.198c0-1.486 1.254-3.455 2.199-3.455.945 0 2.199 1.97 2.199 3.455a2.201 2.201 0 0 1-2.199 2.198ZM83.234 20.102c-3.21 0-5.34 3.97-5.34 6.596a5.345 5.345 0 0 0 5.34 5.34 5.345 5.345 0 0 0 5.34-5.34c0-2.626-2.13-6.596-5.34-6.596Zm0 8.794a2.201 2.201 0 0 1-2.199-2.198c0-1.486 1.254-3.455 2.199-3.455.945 0 2.199 1.97 2.199 3.455a2.201 2.201 0 0 1-2.2 2.198ZM50.569 20.102c-3.21 0-5.34 3.97-5.34 6.596a5.345 5.345 0 0 0 5.34 5.34 5.345 5.345 0 0 0 5.34-5.34c0-2.626-2.13-6.596-5.34-6.596Zm0 8.794a2.201 2.201 0 0 1-2.2-2.198c0-1.486 1.254-3.455 2.2-3.455.945 0 2.198 1.97 2.198 3.455a2.201 2.201 0 0 1-2.198 2.198Z" fill="currentColor"/></g></symbol><symbol id="benefits-icon-2"><g fill="none"><path d="M43.35 41.783c-7.085 0-12.849 5.764-12.849 12.848 0 6.475 4.804 10.341 12.849 10.341s12.848-3.865 12.848-10.34c0-7.085-5.764-12.85-12.848-12.85Zm0 20.056c-3.628 0-9.715-.937-9.715-7.208 0-5.357 4.358-9.715 9.715-9.715 5.356 0 9.715 4.358 9.715 9.715 0 6.271-6.087 7.208-9.715 7.208ZM37.082 29.248c-3.202 0-5.327 3.961-5.327 6.58a5.333 5.333 0 0 0 5.327 5.328 5.333 5.333 0 0 0 5.328-5.327c0-2.62-2.125-6.581-5.328-6.581Zm0 8.774a2.196 2.196 0 0 1-2.193-2.193c0-1.483 1.25-3.448 2.193-3.448.944 0 2.194 1.965 2.194 3.448 0 1.21-.984 2.193-2.194 2.193ZM49.617 29.248c-3.202 0-5.327 3.961-5.327 6.58a5.333 5.333 0 0 0 5.327 5.328 5.333 5.333 0 0 0 5.328-5.327c0-2.62-2.125-6.581-5.328-6.581Zm0 8.774a2.196 2.196 0 0 1-2.193-2.193c0-1.483 1.25-3.448 2.193-3.448.943 0 2.194 1.965 2.194 3.448 0 1.21-.984 2.193-2.194 2.193ZM59.645 36.769c-3.203 0-5.327 3.96-5.327 6.58a5.333 5.333 0 0 0 5.327 5.328 5.333 5.333 0 0 0 5.327-5.327c0-2.62-2.124-6.581-5.327-6.581Zm0 8.774a2.196 2.196 0 0 1-2.194-2.193c0-1.483 1.251-3.448 2.194-3.448.943 0 2.194 1.965 2.194 3.448 0 1.21-.984 2.193-2.194 2.193ZM27.054 36.769c-3.202 0-5.327 3.96-5.327 6.58a5.333 5.333 0 0 0 5.327 5.328 5.333 5.333 0 0 0 5.328-5.327c0-2.62-2.125-6.581-5.328-6.581Zm0 8.774a2.196 2.196 0 0 1-2.193-2.193c0-1.483 1.25-3.448 2.193-3.448.944 0 2.194 1.965 2.194 3.448 0 1.21-.984 2.193-2.194 2.193Z" fill="currentColor"/><path d="M46.693 51.81h-1.776v-1.775a1.567 1.567 0 1 0-3.134 0v1.776h-1.776a1.567 1.567 0 1 0 0 3.133h1.776v1.776a1.567 1.567 0 1 0 3.134 0v-1.776h1.776a1.567 1.567 0 1 0 0-3.133Z" fill="currentColor"/><path d="M62.197 2.296A47.623 47.623 0 0 0 47.528 0C34.833 0 22.898 4.944 13.92 13.92 4.944 22.899 0 34.834 0 47.529c0 12.695 4.944 24.63 13.92 33.608 8.978 8.977 20.913 13.92 33.608 13.92a1.567 1.567 0 1 0 0-3.133c-11.858 0-23.006-4.618-31.391-13.003C7.752 70.534 3.134 59.386 3.134 47.528s4.618-23.006 13.003-31.391C24.522 7.75 35.67 3.134 47.528 3.134c4.692 0 9.302.721 13.705 2.144a1.581 1.581 0 0 0 1.973-1.009 1.582 1.582 0 0 0-1.01-1.973Z" fill="currentColor"/><path d="m106.612 42.955-5.502-6.289a1.583 1.583 0 0 0-2.211-.147l-4.383 3.835a47.533 47.533 0 0 0-13.38-26.434 47.661 47.661 0 0 0-11.538-8.51 1.581 1.581 0 0 0-2.115.657 1.582 1.582 0 0 0 .657 2.116 44.547 44.547 0 0 1 10.78 7.953c7.486 7.486 11.923 16.992 12.831 27.488.108 1.252 1.645 1.874 2.593 1.044l5.439-4.76 3.439 3.931L91.03 54.507c-.972.85-2.467.85-3.439 0L75.4 43.839l3.439-3.93 5 4.375c1.057.925 2.752.03 2.588-1.362C84.108 23.216 67.385 8.356 47.528 8.356c-21.6 0-39.171 17.573-39.171 39.172 0 21.6 17.572 39.172 39.171 39.172a1.567 1.567 0 1 0 0-3.134c-19.871 0-36.038-16.166-36.038-36.038 0-19.871 16.167-36.038 36.038-36.038 16.792 0 31.149 11.551 35.016 27.497l-2.82-2.468a1.583 1.583 0 0 0-2.211.147l-5.503 6.29a1.567 1.567 0 0 0 .147 2.21l13.371 11.7c2.139 1.87 5.428 1.87 7.566 0l13.371-11.7c.651-.57.717-1.56.147-2.21Z" fill="currentColor"/><path d="M73.433 89.415h-11.63C66.983 85.56 75 78.39 75 70.926c0-5.471-4.452-9.923-9.924-9.923-5.472 0-9.923 4.452-9.923 9.923a1.567 1.567 0 1 0 3.133 0 6.797 6.797 0 0 1 6.79-6.79 6.797 6.797 0 0 1 6.79 6.79c0 9.023-15.794 18.617-15.953 18.712a1.582 1.582 0 0 0-.687 1.818 1.582 1.582 0 0 0 1.493 1.093h16.713a1.567 1.567 0 0 0 0-3.134ZM98.503 82.73h-3.447V62.57c0-.642-.407-1.234-1.006-1.464a1.582 1.582 0 0 0-1.802.508L75.534 83.341c-.777 1.012-.031 2.523 1.242 2.523h15.147v5.118a1.567 1.567 0 1 0 3.133 0v-5.118h3.447a1.566 1.566 0 1 0 0-3.134Zm-6.58 0H79.957l11.965-15.553V82.73Z" fill="currentColor"/></g></symbol><symbol id="benefits-icon-3"><g fill="none"><path d="m70.011 33.067-6.565-14.91V1.585C63.446.43 62.2-.35 61.173.168l-5.998 3.027L49.177.168a1.556 1.556 0 0 0-1.405 0l-5.998 3.027L35.776.168a1.556 1.556 0 0 0-1.405 0l-5.998 3.027L22.375.168a1.556 1.556 0 0 0-1.405 0l-5.998 3.027L8.973.168C7.947-.351 6.701.429 6.701 1.585v16.572L.135 33.067a1.602 1.602 0 0 0-.135.644v72.704C0 107.29.703 108 1.57 108h67.006c.868 0 1.57-.71 1.57-1.585V33.711c0-.222-.045-.44-.135-.644ZM9.841 4.15l4.428 2.235c.442.223.963.223 1.405 0l5.998-3.027 5.998 3.027c.442.223.963.223 1.405 0l5.998-3.027 5.998 3.027c.442.223.963.223 1.405 0l5.998-3.027 5.998 3.027c.442.223.963.223 1.405 0l4.428-2.235v12.758H9.84V4.15Zm-6.7 76.797h34.732l6.412 5.178-6.412 5.178H3.14V80.947Zm40.308-45.651h10.156v69.534H3.14V94.474h35.283c.356 0 .702-.123.98-.348l8.376-6.763c.774-.625.774-1.85 0-2.475l-8.375-6.764a1.563 1.563 0 0 0-.981-.347H3.14V35.296h32.98c.867 0 1.57-.71 1.57-1.585 0-.876-.703-1.586-1.57-1.586H3.986l5.305-12.047h50.167l-5.304 12.047H43.449c-.867 0-1.57.71-1.57 1.586 0 .875.703 1.585 1.57 1.585Zm23.557 69.534h-10.26V34.047l5.13-11.65 5.13 11.65v70.783Z" fill="currentColor"/><path d="M28.373 50.724c-7.1 0-12.878 5.831-12.878 12.998 0 6.551 4.814 10.462 12.878 10.462 8.063 0 12.877-3.911 12.877-10.462 0-7.167-5.777-12.998-12.877-12.998Zm0 20.29c-3.637 0-9.737-.948-9.737-7.292 0-5.42 4.368-9.828 9.737-9.828s9.736 4.409 9.736 9.828c0 6.345-6.1 7.292-9.736 7.292ZM22.09 38.043c-3.21 0-5.339 4.007-5.339 6.658 0 2.972 2.396 5.39 5.34 5.39s5.34-2.418 5.34-5.39c0-2.65-2.13-6.658-5.34-6.658Zm0 8.877a2.212 2.212 0 0 1-2.198-2.22c0-1.498 1.254-3.487 2.199-3.487.945 0 2.199 1.988 2.199 3.488 0 1.223-.987 2.219-2.2 2.219ZM34.654 38.043c-3.21 0-5.34 4.007-5.34 6.658 0 2.972 2.396 5.39 5.34 5.39 2.945 0 5.34-2.418 5.34-5.39 0-2.65-2.13-6.658-5.34-6.658Zm0 8.877a2.211 2.211 0 0 1-2.198-2.22c0-1.498 1.253-3.487 2.198-3.487.946 0 2.2 1.988 2.2 3.488 0 1.223-.987 2.219-2.2 2.219ZM44.705 45.652c-3.21 0-5.34 4.007-5.34 6.657 0 2.972 2.396 5.39 5.34 5.39 2.945 0 5.34-2.418 5.34-5.39 0-2.65-2.13-6.657-5.34-6.657Zm0 8.877a2.212 2.212 0 0 1-2.198-2.22c0-1.5 1.253-3.487 2.198-3.487.945 0 2.199 1.988 2.199 3.487 0 1.224-.986 2.22-2.199 2.22ZM12.04 45.652c-3.21 0-5.34 4.007-5.34 6.657 0 2.972 2.396 5.39 5.34 5.39s5.34-2.418 5.34-5.39c0-2.65-2.13-6.657-5.34-6.657Zm0 8.877a2.212 2.212 0 0 1-2.199-2.22c0-1.5 1.254-3.487 2.199-3.487.945 0 2.199 1.988 2.199 3.487 0 1.224-.987 2.22-2.199 2.22ZM14.972 98.067H8.27c-.867 0-1.57.71-1.57 1.585s.703 1.585 1.57 1.585h6.7c.868 0 1.571-.71 1.571-1.585 0-.876-.703-1.585-1.57-1.585ZM36.748 98.067H21.672c-.867 0-1.57.71-1.57 1.585s.703 1.585 1.57 1.585h15.076c.868 0 1.57-.71 1.57-1.585 0-.876-.702-1.585-1.57-1.585ZM19.997 84.54H8.271c-.867 0-1.57.71-1.57 1.585 0 .876.703 1.586 1.57 1.586h11.726c.867 0 1.57-.71 1.57-1.585 0-.876-.703-1.586-1.57-1.586ZM35.073 84.54h-8.375c-.868 0-1.57.71-1.57 1.585 0 .876.702 1.586 1.57 1.586h8.375c.868 0 1.57-.71 1.57-1.585 0-.876-.702-1.586-1.57-1.586Z" fill="currentColor"/></g></symbol><symbol id="logo-icon"><g fill="none"><path d="M41.84 22H7a.792.792 0 0 1-.75-.534L1.044 6.299a.791.791 0 0 1 .874-1.037.79.79 0 0 1 .677.47c.644 1.46 2.934 6.173 5.606 6.173.033 0 .067-.001.1-.003 1.612-.071 4.133-1.929 6.989-10.365a.792.792 0 0 1 1.5 0c.975 2.877 4.243 10.321 7.636 10.321h.027c1.61-.02 4.083-1.823 6.732-10.303A.792.792 0 0 1 31.941 1h.007c.35.004.656.235.753.57.81 2.784 3.681 10.076 7.203 10.38 2.058.17 4.34-2.155 6.593-6.748a.791.791 0 0 1 1.46.603l-5.368 15.66a.792.792 0 0 1-.75.535ZM7.565 20.419h33.709l3.102-9.05c-1.5 1.584-3.022 2.29-4.61 2.157-3.9-.338-6.577-5.951-7.822-9.25-2.198 6.127-4.652 9.13-7.473 9.162l-.046.001c-3.942 0-6.985-6.034-8.364-9.363-2.352 6.198-4.877 9.28-7.69 9.406-1.442.055-2.698-.662-3.78-1.727l2.974 8.664Z" fill="currentColor" stroke="#151313" stroke-width=".8"/></g></symbol><symbol id="social-icon-facebook"><g fill="none"><path d="M1.462 2.807v1.996H0v2.44h1.462v7.252h3.003V7.243h2.016s.189-1.17.28-2.45H4.477V3.126c0-.25.327-.585.65-.585h1.637V0H4.54C1.388 0 1.462 2.443 1.462 2.807Z" fill="currentColor"/></g></symbol><symbol id="social-icon-twitter"><g fill="none"><path d="M18.727 6.697c1.127-.093 1.891-.605 2.186-1.3-.407.25-1.67.521-2.366.262a8.722 8.722 0 0 0-.11-.46c-.531-1.95-2.35-3.52-4.255-3.331.154-.062.31-.12.467-.172.21-.075 1.44-.276 1.246-.71-.163-.382-1.667.289-1.95.376.374-.14.992-.382 1.058-.811a2.985 2.985 0 0 0-1.569.743c.157-.17.276-.375.302-.596-1.527.975-2.42 2.942-3.141 4.85-.567-.55-1.07-.982-1.52-1.223C7.811 3.647 6.299 2.94 3.926 2.06c-.073.785.389 1.83 1.717 2.523-.288-.038-.814.048-1.235.149.171.899.731 1.64 2.247 1.998-.693.046-1.05.204-1.375.544.315.625 1.085 1.361 2.47 1.21-1.54.664-.627 1.893.626 1.71-2.138 2.208-5.508 2.045-7.443.199 5.052 6.885 16.036 4.072 17.673-2.56 1.226.01 1.947-.425 2.394-.905-.706.12-1.73-.004-2.273-.23Z" fill="currentColor"/></g></symbol><symbol id="social-icon-vk"><g fill="none"><path d="M21.328 11.085c-.056-.095-.406-.854-2.088-2.416-1.762-1.635-1.525-1.37.596-4.197 1.293-1.723 1.81-2.774 1.647-3.224C21.33.82 20.38.933 20.38.933L17.22.95s-.234-.031-.409.072c-.17.103-.278.34-.278.34s-.501 1.333-1.17 2.466c-1.407 2.39-1.971 2.517-2.201 2.369-.535-.346-.401-1.391-.401-2.133 0-2.317.351-3.283-.685-3.533-.344-.083-.597-.138-1.476-.147C9.47.373 8.515.389 7.975.653c-.36.176-.638.569-.468.591.21.028.682.128.933.47.325.44.313 1.431.313 1.431s.187 2.728-.435 3.067c-.427.233-1.012-.242-2.267-2.412-.643-1.111-1.13-2.34-1.13-2.34s-.093-.229-.26-.351a1.31 1.31 0 0 0-.486-.196L1.17.931s-.451.014-.617.21c-.147.174-.012.534-.012.534s2.353 5.505 5.017 8.28C8 12.498 10.775 12.33 10.775 12.33h1.257s.38-.042.573-.25c.179-.193.172-.553.172-.553s-.025-1.686.759-1.935c.771-.244 1.762 1.63 2.813 2.352.794.545 1.397.426 1.397.426l2.81-.04s1.469-.09.772-1.246Z" fill="currentColor"/></g></symbol></svg>